<svg xmlns="http://www.w3.org/2000/svg" width="9645" height="7181" viewBox="0 0 9645 7181">

  <path id="blazon.svg" data-name="blazon"
    d="M4764,1302c-0.33-2-.67-4-1-6l-10-7h-4c-3.17,5.89-4.74,3.17-8,8-0.33,1.67-.67,3.33-1,5h-62c-52.43-22.01-89.66-121.4-102-188v-51c-1.97-7.29-8.82-19.59-7-32v-2q3.495-4.005,7-8c8.55-26.553-6.06-53.4,0-79,5.9-24.93,19.85-42.711,29-63,17.61-39.029,45.27-64.144,80-86,7.85-4.942,27.02-18.5,39-14,8.32,4.394,6.46,12.061,12,19,2.42,3.038,23.43,19.545,27,21,0.67-.333,1.33-0.667,2-1,3.47-8.054,30.08-39.519,38-44,138.81,40.311,184.38,299.85,105,436-18.37,31.51-35.99,70.81-70,86C4819.98,1304.05,4787.4,1301.81,4764,1302Z" />
</svg>