<svg id="mathematiques" xmlns="http://www.w3.org/2000/svg" width="9645" height="7181" viewBox="0 0 9645 7181">

  <path id="mathematiques.svg" data-name="mathematiques" class="cls-2"
    d="M8051,990c36.94-.426,72.7,7.6,83,39,3.2,9.75-5.15,16.85-2,26l2-2c6.34-2.81,4.8-7.81,10-11,0.33,3,.67,6,1,9-10.16,5.73-10.47,22.7-18,32,0.33,0.67.67,1.33,1,2,1-.67,2-1.33,3-2l9-18c1.67,0.33,3.33.67,5,1v6c-3.57,5.6-7.12,9.37-6,17-6.22,1.29-15.68,2.83-21,6v1c1.26,4.42,1.27,4.2,5,6q-5.505,7.5-11,15,3,10.005,6,20c6.28-.48,5.12-1.44,9,0q1.995,15.495,4,31c-1.95,6.58-12.78,7.11-10,18q7.995,12,16,24c5.59,11.52,6.28,24.45,11,38,8.03,23.05,21.1,46.06,16,80-19.31,3.07-34.75,13.27-58,16-24.04,2.82-46.69-14.16-70-10-6,5.12-22.94,36.83-25,46h5c1,0.33,2,.67,3,1-0.86,4.53.12,2.98-3,5-9,3.87-13.19-1.6-21,3-2.15,9.45-3.26,34.93-10,41q-5.505-13.995-11-28l-10,3c-2.77-15.52,7.99-27.05,5-45-0.67-.33-1.33-0.67-2-1-1.33.33-2.67,0.67-4,1-5.42,2.79-6.02,7.99-10,12q9.495,32.49,19,65c-27.71.39-46.06,14.11-68,20-11.69,3.14-25.96.46-36-1q-27.99.495-56,1c-10.45-1.99-18.75-7.44-27-11-8-3.45-38.01-16.78-48-8-7.9,20.54,15.93,30.87,12,55-5.52,33.88-44.44,134.84-15,157q11.505,3.495,23,7c0.4,10.99,4.81,12.92,6,23-2.75,4.51-3.35,10.21-8,13-8.74,3.92-23.19.52-31-2-5.58-25.4-31.45-23.3-38-46v-21c-5.53-38.25,5.76-67.45-13-95-24.08,1.01-38.24,13-58,6v-3c13.08-11.42,45.32-30.64,51-47,8.98-25.88-2.6-71.1,16-87q6,1.995,12,4c9.95-5.64,26.11-52.55,30-66q-4.005,4.995-8,10c-2-.33-4-0.67-6-1-0.33-.67-0.67-1.33-1-2,9.46-45.48,31.24-15.32,56-33,18.64-13.31,29.06-35.15,46-50,7.81-6.84,21.26-5.49,30-12,8.02-5.97,8.92-21.01,14-30,10.39-18.38,32.63-27.89,39-50h2q17.505,64.995,35,130c5.64,20.59,6.77,48.29,19,63q7.995-8.505,16-17c-3.65-24.88-16.01-47.77-24-69-2.63-7,.87-15.36-1-23q-10.5-34.995-21-70c-5.8-16.89-3.61-34.68-10-48,5.34-13.56,18.09-29.64,29-38,5.54,3.28,9.75,3.42,15,0,2.66-7.86,5.39-11.86,13-15,4.5,3.08,12.78,7.76,21,4,8.92-4.35,12.73-17.29,17-24-5.66,2.21-3.51,2.99-11,3v-2c-0.61-3.99,2.22-6.44,4-11-2.82,1.75-2.57,2.17-7,3-0.33-1-.67-2-1-3,2.79-5.67,9.64-10.05,14-3l3,9c3-.33,6-0.67,9-1q1.995-5.505,4-11c-6.03-9.73-12.73-13.14-20-21v-4c3.98-5.28,4.81-8.61,12-11v2c1.52,6.46-4.32,7.33-1,13,1.58,4.22,2.67,4.76,6,7,6.61-7.45,7.24-18.34,13-27Zm-51,66c-1,1.33-2,2.67-3,4C7999.91,1058.39,8001.1,1058.87,8000,1056Zm130,23c0.33,0.67.67,1.33,1,2C8130.67,1080.33,8130.33,1079.67,8130,1079Zm-11,6c1,1.33,2,2.67,3,4h1v-1C8121.09,1085.58,8122.36,1086.38,8119,1085Z" />
</svg>