<svg  xmlns="http://www.w3.org/2000/svg" width="9645" height="7181" viewBox="0 0 9645 7181">
  <defs>
    <style>
      .cls-1 {
        fill: #fff;
      }

      .cls-2 {
        fill-rule: evenodd;
      }
    </style>
  </defs>
  <path id="charity" data-name="charity" class="cls-2" d="M5006,1400c7.48,21.1-7.09,51.64-15,65-16.4,27.72-23.38,64.85-41,93-6.22,9.93-20.44,12.52-28,21,2.65,4.08,2.81,1.74,2,5-7.88,10.33-20.52-.09-33,6-9.12,4.45-17.53,19.85-25,27l-2-2-10-7c-0.72-11.17,4.05-18.6,6-29q-0.495-10.5-1-21l27-9q8.505-12,17-24c15.41-13.44,37.8-19.43,47-39,4.29-9.12,8.71-33.71,5-42q-4.995-4.005-10-8,9,1.995,18,4c-1.21-4.91-5.36-6.8-7-10q7.5-3.495,15-7c12.53,5.22,9.79,11.99,17,22,0.67-.33,1.33-0.67,2-1C4993.49,1432.25,4997.69,1408.1,5006,1400Zm-517,3c9.19,5.93,7.92,22.35,17,29l6-9c7.01-5.59,19.52-6.31,23,1a29.059,29.059,0,0,0-16,5c-0.33,3-.67,6-1,9h3c0.22-4.51.71-5.39,2-8q9-1.995,18-4c-2.67,7.08-9.96,6.23-14,12,1,2.33,2,4.67,3,7,1.33-1,2.67-2,4-3l4-4q9,1.995,18,4c-0.33,1-.67,2-1,3-7.42,2.25-12.08,1.69-18,6-0.33.67-.67,1.33-1,2,2.64,35.78,31.84,40.83,53,58,9.46,7.68,26.12,27.27,35,37-3.72,9.36-7.19,15.05-14,21q-6-.495-12-1c-0.33-1.67-.67-3.33-1-5,2.33-1.33,4.67-2.67,7-4-0.33-2-.67-4-1-6-1.33-1.67-2.67-3.33-4-5-5.18.72-5.97,1.25-8,5-2.71,6.95,1.62,11.47,0,16-3.33.67-6.67,1.33-10,2q-4.5-5.505-9-11c6.53-.11,8.48-1.05,11-5,3.13-4.55,1.43-8.91-1-13h-9c-1,1.33-2,2.67-3,4,0.67,2,1.33,4,2,6-31.84-10.37-29.06-34.83-45-61C4513.57,1468.96,4481.8,1436.94,4489,1403Zm257,24q6.495,15.495,13,31,11.505-13.5,23-27l2,2c-3.87,9.24-8.97,14.93-10,27l3,3c13.16,0.07,18.45-2.23,27-11q-7.5,15.495-15,31c-0.95,5.69,5.88,10.58,2,18l-3,3a12.655,12.655,0,0,0,14,9c-1,1.33-2,2.67-3,4h-1c-2.33-1-4.67-2-7-3l-1,1c0.92,6.45,3.94,7.03,5,11,2.53,9.43-6.13,14.91-8,22,1,0.33,2,.67,3,1,9.77,2.5,20.09.86,26,12,3.96,8.38-4.35,18.42-2,32q2.505,11.505,5,23c0.47,2.3.75,1.79-1,4-1,.67-2,1.33-3,2-0.33,2.33-.67,4.67-1,7-5.67-1.75-9.27-.42-13,2-0.06,6.07-.99,7.56-3,11-18.57,3.77-24.57,12.16-31,27q-1.995,6.495-4,13c-3.46,3.18-6.99,2.23-10,6-1.33-2-2.67-4-4-6-8.05.04-9.86,1.81-16,3-1.62-8.35-8.67-18.7-14-24q-7.005-2.505-14-5c-12.36-11.83-4.45-37.43-11-49h-1c-15.39,7.52-25.42,12.05-41,17q-6-7.005-12-14v-18c3.67-.33,7.33-0.67,11-1,1.79-3.46,3.81-6.58,2-11-4.18-8.56-13.57-10.57-27-10,3.11-5.36,4.04-11.39,7-18,16.88,8.34,29.61,10.22,58,10q3.495-4.5,7-9c-3.83-21.72,8.62-26.63,13-41,8.17-26.78-2.26-47.63-14-67l20,14c1-.67,2-1.33,3-2,1-1.33,2-2.67,3-4,1.21-5.15-2.03-14.34,1-21,0.33,0.67.67,1.33,1,2q4.005,9.495,8,19c2-.67,4-1.33,6-2C4739.25,1440.55,4743.31,1435.12,4746,1427Zm100,133c9.72,13.69-3.45,30.43,2,48l17,17h-1c-5.55-3.12-26.59-5.83-37-8-6.56-15.2-11.15-38.92,0-53C4832.98,1565.59,4841.41,1563.06,4846,1560Zm-258,15q9.495,1.005,19,2v1c-4.46,5.74-9.43,8.45-15,13-1.33-1-2.67-2-4-3q-2.505-5.505-5-11v-1C4584.67,1575.67,4586.33,1575.33,4588,1575Zm32,5c4.97,1.16,7.71,3.23,10,7,2.48,4.09,3.09,9.13,3,16h-1q-9.495-4.995-19-10c0.67-1.33,1.33-2.67,2-4Q4617.505,1584.5,4620,1580Zm-12,17q10.995,5.505,22,11c-4.3,13.3-22.92-1.66-27-5C4604.67,1601,4606.33,1599,4608,1597Zm28,18a17.809,17.809,0,0,1,8,9h-1q-4.995-2.505-10-5C4634,1617.67,4635,1616.33,4636,1615Zm50,4h3c0.33,3.33.67,6.67,1,10-1.33,2.33-2.67,4.67-4,7q-5.505-3-11-6,4.5-4.995,9-10C4684.67,1619.67,4685.33,1619.33,4686,1619Zm137,2c2,0.33,4,.67,6,1q1.5,4.995,3,10h-13c0.67-3.33,1.33-6.67,2-10C4821.67,1621.67,4822.33,1621.33,4823,1621Zm15,4q4.005,3,8,6h-3c-2.58-.84-5.24-1.53-7-3C4836.67,1627,4837.33,1626,4838,1625Zm16,2c2,0.33,4,.67,6,1v1h-2c-2.33.67-4.67,1.33-7,2C4852,1629.67,4853,1628.33,4854,1627Zm-199,2c6.19,0.07,8.18,1.14,12,3v3c-0.67.33-1.33,0.67-2,1Zm154,4c2,0.33,4,.67,6,1v3C4810.98,1635.86,4811.17,1635.63,4809,1633Zm-138,3c6,0.86,8.34,2.95,11,7-0.67,1-1.33,2-2,3C4675.62,1642.4,4671.71,1640.84,4671,1636Zm22,1c0.67,1.33,1.33,2.67,2,4h-1l-2-2C4692.33,1638.33,4692.67,1637.67,4693,1637Zm-5,7q6,4.995,12,10c-0.67,1.33-1.33,2.67-2,4-7.73.12-8.97-1.15-13-4Q4686.5,1649.005,4688,1644Zm104,211c20.51,0.07,40.21-45,31-67-3.14-6.78-8.82-8.34-16-11v-3q4.005-2.505,8-5c-1.03-14.33,3.12-12.83,6-24q-4.005-2.505-8-5c-0.33-2.67-.67-5.33-1-8,6.58-2.91,9.28-13.57,10-21-1-.67-2-1.33-3-2-1.67-.33-3.33-0.67-5-1-1.67,2.33-3.33,4.67-5,7-1-.33-2-0.67-3-1,1.43-6.01,1.64-6.18-1-11-17.25-3.57-22.74-14.68-37-21,0.33-1,.67-2,1-3q6.495-10.5,13-21h8c0.64,3.63.4,3.03,2,5l6-3c12.76,36.09,35.66,59.45,74,72v1c-11.87.44-18.33,3.66-26,7,0.33,1.33.67,2.67,1,4,7.55-1.56,10.38-5.51,18-2-0.67,1-1.33,2-2,3-4.81,1.47-6.9,2.59-8,8,1,1.33,2,2.67,3,4,7.07-.38,7.25-1.92,11-5-0.46,6.05-2.25,5.81,3,8,6.74-21.61,36.79-6.16,42,6q0.495,11.505,1,23c6.6,39.68-9.79,88.43,7,122l-18,12c-4.52.9-4.09-2.57-6-3-6.44-1.44-10.6,4.05-15,6-5.75-3.5-6.54-6.59-16-7-7.01,3.58-8.6,8.07-13,14-8.13-1.05-6.78-4.25-14-6-0.67,1-1.33,2-2,3-3.19,6.16-3.69,14.78-7,20-16.06,3.99-32.45,6.39-46-2-0.67-2.33-1.33-4.67-2-7q-21.495-.495-43-1l-8,8c-13.92,4.96-34.89-7.05-44-13-12.73,1.74-23.84,14.55-35,12-13.67-3.62-31.73-13.98-41-23-9.65,2.59-19.18,3.83-27,2q-1.005-6-2-12l-3,3c-3.85-2.25-11.28-4.28-14-8,5.4-5.16,16.16-14.21,12-28-1.41-4.67-5.84-5.24-6-12q3-16.005,6-32c3.32-19.48-5.94-52.34,2-72,6.55-16.22,23.02-21.11,36-31,7.27-5.53,4.44-14.28,14-19v-1q20.505-8.505,41-17c5.2-6.57,20.22-29.97,19-34,17.56-.72,30.59,6.23,37,19-0.33,1.33-.67,2.67-1,4-15.87,5.23-23.28,18.7-34,29h-1l-3-12c-5.66.21-6.71,1.08-10,3,0.12,5.01.89,4.07-1,7l-6-6q-3.495,3-7,6c7.12,16.34,11.49,20.12,8,41,4.09,1.48,16.39,22.87,17,29l-2,2a41.783,41.783,0,0,0-15,2c-9.62,20.14-2,49.31,12,63,13.82,13.51,34.91,6.48,38,32-7.92-1.88-13.08-3.97-20,0-0.33,1-.67,2-1,3,2.05,15.11,10.8,23.08,23,28,11.05-.31,18.57-7.26,22-15,9.86,4.14,14.5,24.38,33,17,8.23-3.63,16.38-12.56,17-24-4.58-8.21-7.85-10.89-11-22l7-7v-7Z"/>
</svg>
