<svg id="divinetheology" xmlns="http://www.w3.org/2000/svg" width="9645" height="7181" viewBox="0 0 9645 7181">
  <defs>
    <style>
      .cls-1 {
        fill: #fff;
      }

      .cls-2 {
        fill: #020000;
        fill-rule: evenodd;
      }
    </style>
  </defs>
  <path id="divinetheology-2" data-name="divinetheology" class="cls-2" d="M3117,323v5c3.75-3.261.62-2.314,6-3,0.48,4.443.46,4.866,3,7,0.81-4.948-.67-2.978,3-5-0.67,2-1.33,4-2,6h2l3-2c0.33,1,.67,2,1,3l6-1c4.49,2.463,8.44,7.069,12,11,0,0,23.43-.431,26,1-0.19,6.763,8.28,18.858,14,20-2.66,6.4-.93,9.523,3,13l9-4c-2.88,4.556-6.15,6.888-4,11q4.995-3.5,10-7c-2.23,6.21-4.57,8.526-8,13l13-5v1c-2.5,4.694-7.67,9.434-6,12l3,6c-3.81.656-4.84,1.05-7,3v1c1.67,0.667,3.33,1.333,5,2-1.29,1.775-5.57,9.033-2,5v4c-1.54,3.1,2.21,1.256-1,7,2.33-.667,4.67-1.333,7-2v1c-2.12,9.655,3.32,13.446,9,22-4.48.96-4.18,0.49-5,2-0.33,4.045.64,4.524,3,8-9.93,9.7-11.02,24.435-21,36-3.35,3.879-7.71.3-10,4,0.33,0.333.67,0.667,1,1-5.51.163-4.65,0.251-9-1l18,27h2c7.81-9.884,19.1-14.715,27-23-2.28-9.949,1.46-24.618,6-31h1c5.3-.084,8.02.525,11,2,8.36,54.8,31.2,97.862,40,150q-4.005,19-8,38c-2.94,15.437,4.46,31.881-2,43-19.19,5.815-41.7,14.118-53,27,1.33,2.333,2.67,4.667,4,7-12.96,1.176-75.19,24.385-78,32,5.66,2.238,2.92,3.078-1,6-7.35,13.448-50.44,20.922-67,28l-43,20-12,14-27,8c-8.13,4.7-9.94,15.394-19,19-18.28,7.278-63.35,15.228-74,28-2.27,3.247-2.89,4.91-2,9h6c-0.33.667-.67,1.333-1,2l-51,21q1.5-15.5,3-31l-18-26c-9.66-17.912-15.09-55.024-10-82,3.74-19.836,12.45-41.015,23-55q7.995-8.5,16-17c11.77-27.256-1.39-63.4,15-88,7.19-10.787,27.7-24.169,41-28h18l70-64,3-14q8.505-9.5,17-19c4.09-8.256,1.29-21.7-1-29-31.41-13.142-14.29-52.052-8-76,2.55-9.717-3.57-20.955-1-29l12-18,19-3c5.11-5.3,4.84-11.42,13-14,7.13-2.253,12.23-.378,17-3,0.67-2.333,1.33-4.667,2-7h3C3101.87,331.178,3104.09,323.484,3117,323Zm181,512c1.67,0.333,3.33.667,5,1,4.32,8.183,24.53,30.552,13,43l-10-4c-5.61,13.246,2.93,38.2,0,55-5.52,31.576-37.16,89.18-23,123,9.6,22.94,26.87,11.14,40,24-0.67,1-1.33,2-2,3-28.56,5.19-58.42.81-84-3-14.5-2.16-33.45,2.49-43,3-15.69.83-22.6,19.05-35,17-10.92-2.12-15.19-9.5-24-12-16.25-4.61-30.54,7.31-40,10-8.01,2.28-29.85-5.76-45-3-12.1,2.2-47.62-.25-51,7,5.47,1.32,5.6,2.98,6,9h-2c-16.83,3.06-20.9-11.69-31-20l-85-70c-7.61-7.51-29.22-20.15-26-31,33.98-10.1,65.83-31.792,98-44,6.11-2.319,5.6,3.223,12,2q12.495-6,25-12c47.57-11.252,88.8-24.865,132-45l3,6q33.99-15.5,68-31h20q9.495-5,19-10C3260.09,847.2,3280.46,844.976,3298,835Z"/>
</svg>
