<svg xmlns="http://www.w3.org/2000/svg" width="697.69" height="864.75" viewBox="0 0 697.69 864.75">
  <defs>
    <style>
      .cls-1 {
        fill-rule: evenodd;
      }
    </style>
  </defs>
  <path id="Esperance" class="cls-1" d="M5412,1050c1.67-.33,3.33-0.67,5-1,19.92-9.59,52.55-49.88,63-70-0.33-.667-0.67-1.333-1-2q-7.995,3-16,6-6.495-5-13-10c17.38-30.15,34.38-58.765,44-99q1.995-25,4-50v2c11.28,15.872,43.52,104.37,29,126-34.86,16.694-41.56,53.25-61,85-17.33,28.3-45.64,52.63-72,72-29.5-1.09-89.89-16.06-114-29-10.13-5.43-25.8-20.94-33-13-2,1.33-4,2.67-6,4v-2c-2.39-5.36-3.04-10.87-6-15,2.25-4.86,6.46-10.46,11-13h6v1l-5,5c0.33,0.67.67,1.33,1,2,5.05-.64,4.96-0.48,7-4,1.38-3.58.41-5.15-1-8-6.71-1.23-8.18-1.97-11-7,1-.67,2-1.33,3-2q6.495,3,13,6c5.62-1.97,7.44-3.35,11-7-0.54-16.03-11.11-21.54-14-35,9.85-4.79,15.96-9.92,6-19-5.3-.084-8.02.525-11,2-1.74,5.494-3.59,8.518-4,16-0.67-.333-1.33-0.667-2-1-1.33-2.333-2.67-4.667-4-7q2.505-15,5-30v2c3.13,4.942,3.19,7.416,10,9q2.505-5.5,5-11h-5c-1.36,3.071-1.54,2.518-1,6-1.33-1.333-2.67-2.667-4-4-2.82-13.121,7.4-20.228,9-32,1.73-12.7-9.41-23.407-14-32-7.5-.058-9.77,1.381-14,4,0.15,6.062.31,7.943-1,11l-3-2c0.5-15.311-2.98-21-9-29,1.45-3.38,1.98-5.054,1-9,5.74-.749,6.73-2.213,10-5-0.3-5.588-1.02-5.838-3-9l-10-3c3.54-5.3,5.34-8.44,3-15a218.479,218.479,0,0,0-26-5c-4.63,2.885-6.74,2.311-8,9l-7-1c1.06-4.649-.13-5.952-1-11,6.65-3,10.47-8.949,12-17,6.78-35.789-24.06-26.325-47-36-2.85-20.615-12.6-44.958-35-46-6.22,2.755-11.95,6.886-16,3,0.67-.667,1.33-1.333,2-2,7.68-14.485,26.43-18.5,28-39-11.06-21.555-21.72-40.859-32-63-13.29.15-17.11,5.786-25,8l-23-4c-5.85,2.26-6.64,5.8-18,6-37.17-46.935-56.66-.861-95,8-31.37,7.249-92.85-8.1-96-30,0.67-.667,1.33-1.333,2-2,18.71,8.792,31.78,30.188,51,1-6.48-9.435-21.47-5.844-30-13,0.33-1,.67-2,1-3l27-2c12.68,2.828,25.87,18.942,41,16,27.07-5.263,48.01-33.688,69-47,10.04-6.366,26.84-5.839,34-15,9.73-12.448,22.84-24.481,31-37,4.38-6.714,2.07-15.8,6-22,10-3.2,27.76-10.418,40-5,5.76,2.552,9.37,6.827,17,8v-1c-9.03-17.778-26.19-19.7-40-32,0-8.605-4.07-31.6-4-32,0.97-5.209,5.59-8.527,5-17-0.45-6.477-3.97-8.416-2-16q6.495-12.5,13-25l-3-9,18-16c-0.63-15.813-10.89-24.883-5-41,4.21-11.529,44.9-34.079,65-29,7.55,1.908,18.77,6.9,27,11,19.29,9.615,18.47,30.743,31,47,6.88,8.927,16.93,14.547,23,25,14.91,25.693,17.93,56.649,7,87-3.29,9.14-13.75,25.517-15,36q1.005,21.5,2,43c-3,10.721-19.48,16.179-15,33q42.495,114.489,85,229c1.71,1.629,43.99,29,44,29,7.86,1.843,12.87-3.642,18-5,24.57-6.5,53.47.444,64,14-10.24,23.369-30.5,55.379-59,60,9.99,13.037,62.55,69.592,55,90-4.98,10.4-16.26,14.413-23,23C5423.13,1021.41,5413.65,1022.24,5412,1050ZM5130,310c-4.78,3.236-7,1.042-11,4,2.03,5.275,4.08,8.064,7,12,6.39-.368,6.44-1.482,10-4-2.35-3.962-2.99-5.534-2-11Zm56,9c-1.33,1.333-2.67,2.667-4,4-4.08,1.054-8.86-1.371-12,3-0.33,1.666-.67,3.334-1,5q2.505,3.5,5,7c6.1,0.07,8.82.03,13,2,0.52,6.937,2.74,8.078,6,12h1c0.97-9.38.23-22.765,2-32-0.33-.333-0.67-0.667-1-1h-9Zm16,244c-2.72,12.229-10.82,19.37-14,29-1.71,5.177-.71,41.873,2,48,1.97,4.472,10.64,9.338,14,14,9.19-4.265,17.1.491,29,2q-13.995-46.5-28-93h-3Zm-99,169c26.75-.645,33.7,21.185,37,43h-15c-3.92-15.171-15.79-29.787-27-38l3-4C5101.67,732.667,5102.33,732.333,5103,732Zm111,302c-0.14,6.92.65,9.57,5,12h5c5.43-2.31,7.29-7.16,5-14,4.01,0.58,2.99-.05,5,2,2.59,6.14-1.41,16.37-4,21-18.48,6.52-47.85,15.37-52,36h-1c0.24-20.09-6.97-33.82-12-47-15.05-39.47-28.08-75.735-43-114q-8.505-12.5-17-25c-8.01-20.5-6.5-42.338-11-66-3.54-18.609-21.55-84.465-7-102,0.33-.667.67-1.333,1-2,1.33,1,2.67,2,4,3-13.2,23.84,4.92,41.924,31,41-1.83,18.5,3.69,55.31,24,56,1.67-1.333,3.33-2.667,5-4,0.33-2,.67-4,1-6h4c-2.01,3.025-3.77,4.606-2,9l3,5c10.51-.013,10.41-7.593,7-15,1.67,1,3.33,2,5,3-0.01,8.712,1.53,8.322,6,12-3.33,6.77-7.71,15.394-7,22,2.33,1.333,4.67,2.667,7,4-2.34,6.7.2,10.955,3,15,6.95,0.854,8.82-.561,15-2,1.24,4.047,1.61,5.059,5,7l4,1c4.85-5.45,4.95-7.228,13-8q3.495,12,7,24l-10,3c0.62-6.446.49-8.465-4-12-10.01,2.409-3.13,6.261-8,13l-9,5c-9.21,14.557,11.1,29.785,12,46-0.33.667-.67,1.333-1,2q-4.005-2-8-4c-12.71,10.6,6.62,14.991-2,23v1c1.89,11.55,13.15,13.743,15,22,1.78,7.93-10.41,10.63-8,20,0.73,5.9,2.45,7.34,5,11C5208,1032.67,5211,1033.33,5214,1034ZM5094,741c11.83,5.491,23.44,20.134,27,34h-9c-6.42-2.019-11.29-3.79-16-7C5093.24,759.481,5091.17,750.834,5094,741Zm33,38,15,1c1.89,14.655,11.85,25.982,19,36C5138.95,814.48,5129.65,799.585,5127,779Zm19,1c12.94,2.416,17.89,9.945,25,18l-3,18h-1C5157.77,808.645,5148.55,793.557,5146,780Zm46,53c4.31,0.208,4.83.262,7,2l-6,7c-1.33-1.667-2.67-3.333-4-5Zm15,3,11,1v4q-4.005,4.5-8,9l-3-1-6-3C5201.93,839.552,5203.02,839.092,5207,836Zm-28,5,6,1c7.95,3.89,2.75,6.993-2,11-1.33-1.333-2.67-2.667-4-4v-8Zm16,5v9h-7l3-4C5194.15,849.188,5193.58,849.563,5195,846Zm5,2c1.67,1,3.33,2,5,3-1.33,1-2.67,2-4,3-0.67-.667-1.33-1.333-2-2C5199.33,850.667,5199.67,849.333,5200,848Zm-28,11c0.67-2.333,1.33-4.667,2-7h3q3.495,4,7,8C5179.09,857.394,5180,858.506,5172,859Zm45-6,8,2c0.74,3.706.47,3.89-1,7h-1l-6-1c-0.67-1-1.33-2-2-3C5215.67,856.333,5216.33,854.667,5217,853Zm-17,5h3c-0.33,1-.67,2-1,3h-2v-3Zm-9,2c5.85,0.862,4.84.688,6,6h-1l-3-2C5192.33,862.667,5191.67,861.333,5191,860Zm20,2,6,4c-0.3,5.588-1.02,5.838-3,9h-1l-6-3c-0.33-1.667-.67-3.333-1-5C5207.67,865.333,5209.33,863.667,5211,862Zm-31,1,6,1c4.77,3.194,6.7,5.486,4,11l-5,2c-1.67-.333-3.33-0.667-5-1-0.33-.667-0.67-1.333-1-2C5179.33,870.334,5179.67,866.666,5180,863Zm21,9c2.4,2.489,2.62,3.047,3,8l-3,2c-1.33-1.667-2.67-3.333-4-5v-1C5198.33,874.667,5199.67,873.333,5201,872Zm17,33h5c1.45,17.128,3.19,40.422-3,52-1.67-1.333-3.33-2.667-5-4C5206.32,937.435,5203.34,919.261,5218,905Zm10,5c20.52,9.824,13.08,46.045,9,68-0.67-.333-1.33-0.667-2-1-2.31-6.793-6.78-10.242-11-15C5228.58,946.77,5228.12,930.31,5228,910Zm-18,46q4.005,5,8,10-2.505,9-5,18c-0.67-.333-1.33-0.667-2-1-1.67-5.473-5.06-5.387-7-12,3.77-2.3,5.09-4.8,7-9C5210.67,960,5210.33,958,5210,956Zm11,13,15,17c-4.18,13.837-8.98,26.25-3,42h-4C5214.43,1015.84,5213.35,990.315,5221,969Zm105,4c-1.33,2-2.67,4-4,6,3.77,3.391,5.41,1.731,6,9q-7.5,10-15,20,17.505,15.5,35,31-9-32.49-18-65Zm-87,16c7.84,7.874,11.55,18.02,8,32-2.73,3.74-4.04,5.19-10,6C5235.01,1012.37,5234.03,1001.51,5239,989Zm-1,43c1.33,1,2.67,2,4,3-0.77,4.42-.6,3.71-3,6C5238.67,1038,5238.33,1035,5238,1032Zm-8,29c3.83,1.32,2.08,0,4,3,2.36,3.61,2.24,10.6,2,17h-12v-4q1.5-7.005,3-14C5228,1062.33,5229,1061.67,5230,1061Zm-11,19c-9.6-.58-17.33-0.49-21,5,0.33,3.33.67,6.67,1,10,4.19,8.85,13.13,2.88,19,9,1.81,8.87-.67,14.07,6,20h1c-0.33.67-.67,1.33-1,2h-1c-24.98-3.78-46.54-11.21-67-15,0.33-1.33.67-2.67,1-4,4.61-8.74,16.96-5.68,25-11q3.495-9.495,7-19c13.04-1.28,18.13-9.15,32-11Q5220,1073.005,5219,1080Zm-3,4h3q-1.005,7.995-2,16-6-2.505-12-5c-0.67-1.67-1.33-3.33-2-5,1.32-3.83,0-2.08,3-4C5209.33,1085.33,5212.67,1084.67,5216,1084Zm20,16q-7.5-.495-15-1,1.005-7.5,2-15,6.495,1.005,13,2v14Zm-60-9c-0.52,2.61.26,2.59-3,5C5174,1094.33,5175,1092.67,5176,1091Zm66,0c3.38,2.77,3.01,5.29,2,10h-3C5241.33,1097.67,5241.67,1094.33,5242,1091Zm-17,12c2.67,0.33,5.33.67,8,1v1q-1.5,6.495-3,13c-0.67.33-1.33,0.67-2,1h-2l-3-3q-1.005-6-2-12C5222.33,1103.67,5223.67,1103.33,5225,1103Zm22,0c6.79,2.9,17.58,16.62,14,26-0.67,2.33-1.33,4.67-2,7-4.06,1.94-6.37,2.91-13,3l-15-9v-4c11.53-2.29,8.41-11.03,11-22C5243.67,1103.67,5245.33,1103.33,5247,1103Z" transform="translate(-4833 -274.25)"/>
</svg>
