<svg xmlns="http://www.w3.org/2000/svg" xmlns:xlink="http://www.w3.org/1999/xlink" width="9645px" height="7181px">
    <path id="faith.svg"
        d="M4379.1000,304.000 C4383.666,304.000 4387.334,304.000 4390.1000,304.000 C4393.503,312.708 4391.691,338.156 4398.000,341.1000 C4411.780,347.766 4414.662,338.450 4423.1000,350.1000 C4426.333,352.333 4428.667,353.667 4430.1000,355.000 C4424.191,402.085 4438.181,380.207 4459.000,406.1000 C4456.333,421.332 4453.666,435.668 4451.000,449.1000 C4443.334,451.333 4435.666,452.667 4428.000,454.000 C4427.668,460.098 4426.254,462.278 4423.1000,466.000 C4417.569,465.951 4415.591,466.905 4411.1000,469.000 C4411.1000,469.1000 4411.1000,471.000 4411.1000,472.000 C4418.512,475.433 4413.563,478.697 4419.000,482.1000 C4424.470,487.330 4434.518,490.784 4440.000,493.1000 C4445.333,495.333 4450.667,496.667 4455.1000,497.1000 C4458.333,500.666 4460.667,503.334 4462.1000,505.1000 C4468.433,508.570 4476.641,505.795 4481.1000,508.1000 C4486.833,543.525 4506.531,540.266 4529.000,557.1000 C4531.559,560.020 4539.951,584.395 4542.1000,589.000 C4544.333,589.000 4545.667,589.000 4546.1000,589.000 C4549.1000,586.333 4553.001,583.666 4555.1000,580.1000 C4560.1000,585.1000 4566.000,591.001 4571.000,595.1000 C4583.979,602.924 4585.300,595.958 4595.1000,607.000 C4622.901,605.624 4639.426,588.091 4658.000,583.000 C4658.333,583.666 4658.666,584.333 4658.1000,585.000 C4659.333,587.333 4659.667,589.667 4660.000,592.000 C4656.056,599.588 4651.568,604.199 4648.000,613.000 C4652.047,619.378 4661.966,622.845 4671.1000,622.1000 C4683.611,617.268 4692.493,608.834 4700.1000,600.000 C4703.666,601.000 4706.334,601.1000 4709.000,603.000 C4709.000,604.333 4709.000,605.667 4709.000,607.000 C4702.001,616.999 4694.999,627.001 4688.000,637.000 C4666.002,636.667 4643.998,636.333 4622.000,636.000 C4614.991,637.449 4602.882,641.166 4591.1000,639.000 C4576.002,634.334 4559.999,629.666 4544.000,625.000 C4534.535,623.537 4531.395,629.676 4525.000,631.000 C4513.024,633.480 4508.253,625.546 4499.000,624.000 C4487.624,631.622 4482.050,641.994 4466.1000,646.000 C4464.973,642.222 4464.074,642.587 4459.1000,640.1000 C4436.556,662.774 4462.535,694.853 4447.000,718.1000 C4441.001,721.666 4434.999,724.333 4428.1000,727.000 C4428.595,722.970 4428.673,723.088 4426.1000,721.000 C4419.814,721.389 4407.759,714.286 4396.000,717.000 C4374.836,721.886 4373.218,755.635 4368.1000,774.000 C4363.667,773.333 4358.333,772.666 4352.1000,771.1000 C4352.1000,769.667 4352.1000,767.333 4352.1000,765.000 C4358.161,754.553 4364.163,752.266 4371.1000,745.000 C4371.333,744.667 4370.667,744.333 4370.000,744.000 C4368.1000,744.000 4367.1000,744.000 4366.1000,744.000 C4357.569,751.403 4348.310,756.276 4347.1000,772.1000 C4343.667,773.333 4339.333,773.667 4335.000,774.000 C4330.272,777.308 4328.152,779.975 4324.1000,784.1000 C4328.596,795.090 4338.518,802.511 4337.1000,813.000 C4328.001,818.666 4317.999,824.334 4307.1000,829.1000 C4305.426,824.792 4300.663,825.360 4296.000,828.000 C4295.699,831.881 4295.565,831.536 4297.000,834.1000 C4287.403,835.178 4284.554,838.101 4280.000,843.000 C4279.536,852.297 4281.069,864.902 4286.1000,867.000 C4283.997,873.005 4284.062,895.732 4277.000,898.1000 C4275.066,894.172 4269.552,890.605 4263.000,894.000 C4259.367,895.497 4257.812,896.642 4256.000,900.000 C4242.823,915.390 4270.571,951.571 4275.000,965.000 C4274.667,965.000 4274.333,965.000 4273.1000,965.000 C4269.557,961.634 4265.535,958.775 4258.000,960.1000 C4259.349,967.588 4267.032,971.587 4271.1000,975.1000 C4271.1000,977.333 4271.1000,978.667 4271.1000,980.000 C4262.772,986.856 4255.458,1000.728 4254.1000,1016.000 C4263.095,1028.206 4277.008,1022.210 4286.1000,1032.1000 C4287.667,1041.666 4288.334,1050.334 4288.1000,1059.000 C4281.952,1061.251 4281.203,1063.890 4278.1000,1071.000 C4271.774,1067.361 4268.904,1070.869 4265.000,1076.000 C4233.542,1066.566 4212.495,1045.412 4193.000,1023.1000 C4194.241,1013.547 4199.734,1002.581 4195.1000,993.1000 C4175.609,990.379 4168.406,976.196 4155.1000,965.000 C4145.335,995.664 4134.666,1026.336 4123.1000,1056.1000 C4123.334,1057.333 4122.667,1057.667 4121.1000,1058.000 C4112.668,1055.334 4103.332,1052.667 4094.000,1050.000 C4091.1000,1045.334 4089.1000,1040.666 4087.1000,1035.1000 C4101.332,998.337 4114.668,960.663 4127.1000,922.1000 C4132.706,909.712 4136.037,895.926 4129.000,882.1000 C4115.416,880.342 4102.592,880.565 4094.000,873.1000 C4087.483,859.060 4076.063,846.635 4068.1000,829.1000 C4079.189,823.954 4083.877,814.841 4098.000,811.1000 C4114.838,808.613 4133.304,813.040 4144.1000,808.1000 C4145.1000,807.334 4146.1000,805.666 4148.000,804.000 C4154.333,804.000 4160.667,804.000 4167.000,804.000 C4194.330,721.008 4221.669,637.992 4248.1000,554.1000 C4254.588,539.372 4275.249,492.139 4267.1000,481.000 C4238.873,490.928 4199.537,505.319 4172.000,493.1000 C4175.666,479.668 4179.334,465.332 4182.1000,451.000 C4208.124,451.469 4228.039,444.707 4248.000,437.1000 C4248.000,437.667 4248.000,437.333 4248.000,436.1000 C4241.937,402.789 4250.790,366.579 4275.000,347.000 C4282.999,341.334 4291.001,335.666 4299.000,329.1000 C4300.333,324.001 4301.667,317.999 4303.000,311.1000 C4313.672,290.019 4332.516,269.061 4366.000,275.1000 C4375.268,282.259 4380.423,287.644 4379.1000,304.000 ZM4296.000,565.1000 C4283.002,604.663 4269.999,643.337 4256.1000,682.000 C4253.737,691.294 4245.952,704.615 4246.1000,714.000 C4252.333,708.667 4257.667,703.333 4263.000,697.1000 C4285.557,691.410 4311.001,653.647 4316.1000,631.000 C4322.678,609.565 4308.096,577.110 4296.000,565.1000 ZM4870.1000,595.000 C4880.067,594.606 4887.124,595.355 4891.1000,598.1000 C4890.000,602.333 4887.1000,605.667 4886.000,609.000 C4878.574,608.148 4861.070,604.539 4855.1000,600.000 C4856.333,598.1000 4856.667,598.000 4857.000,597.000 C4861.666,596.333 4866.334,595.666 4870.1000,595.000 ZM4834.000,612.000 C4851.020,617.179 4849.501,628.422 4872.1000,625.1000 C4872.1000,626.333 4872.1000,626.667 4872.1000,627.000 C4873.333,631.333 4873.667,635.667 4874.000,640.000 C4873.000,640.000 4872.000,640.000 4870.1000,640.000 C4855.572,635.769 4839.616,632.855 4834.000,619.000 C4834.000,616.667 4834.000,614.333 4834.000,612.000 ZM4409.000,727.000 C4411.000,727.000 4413.000,727.000 4415.000,727.000 C4416.333,728.1000 4417.667,731.000 4419.000,733.000 C4418.667,733.666 4418.333,734.333 4417.1000,735.000 C4402.941,742.737 4396.649,776.087 4377.1000,774.000 C4377.1000,773.667 4377.1000,773.333 4377.1000,772.1000 C4385.739,749.847 4389.572,738.023 4409.000,727.000 ZM4438.1000,727.000 C4441.333,727.333 4443.667,727.667 4445.1000,727.1000 C4447.000,731.666 4448.000,735.334 4449.000,739.000 C4448.667,739.000 4448.333,739.000 4447.1000,739.000 C4442.759,737.307 4442.446,736.886 4440.000,742.1000 C4438.667,742.1000 4437.333,742.1000 4436.000,742.1000 C4435.141,734.498 4435.301,732.232 4438.1000,727.000 ZM4421.000,738.000 C4440.371,751.956 4418.096,777.419 4394.000,775.1000 C4394.000,774.1000 4394.000,773.1000 4394.000,772.1000 C4400.784,759.218 4410.388,747.996 4421.000,738.000 ZM4343.1000,777.1000 C4346.1000,777.1000 4350.001,777.1000 4352.1000,777.1000 C4352.1000,778.333 4352.1000,778.667 4352.1000,778.1000 C4352.333,778.1000 4351.667,778.1000 4351.000,778.1000 C4346.667,782.333 4342.333,785.667 4337.1000,789.000 C4333.915,787.860 4336.743,787.473 4332.1000,789.000 C4332.1000,787.333 4332.1000,785.667 4332.1000,783.1000 C4336.666,782.000 4340.334,779.1000 4343.1000,777.1000 ZM4296.000,1122.000 C4297.268,1111.082 4313.796,1101.383 4320.000,1091.000 C4319.667,1090.000 4319.333,1089.000 4318.1000,1088.000 C4316.971,1083.841 4315.206,1082.970 4309.1000,1082.000 C4311.182,1074.557 4310.344,1072.665 4307.000,1068.000 C4306.667,1068.000 4306.333,1068.000 4305.1000,1068.000 C4303.334,1068.1000 4300.667,1070.000 4297.1000,1071.000 C4296.705,1062.997 4285.866,1043.630 4292.1000,1029.000 C4295.333,1027.667 4297.667,1026.333 4299.1000,1025.000 C4305.805,1018.752 4304.918,1006.250 4303.1000,996.000 C4304.667,996.333 4305.334,996.667 4305.1000,996.1000 C4307.333,1003.333 4308.667,1009.667 4309.1000,1016.000 C4305.908,1017.459 4307.326,1017.327 4305.000,1020.000 C4305.000,1021.666 4305.000,1023.333 4305.000,1025.000 C4307.333,1025.000 4309.667,1025.000 4311.1000,1025.000 C4312.333,1024.333 4312.667,1023.666 4313.000,1023.000 C4319.230,998.679 4302.488,992.491 4299.1000,972.1000 C4300.333,972.666 4300.667,972.333 4301.000,972.000 C4301.666,972.333 4302.333,972.666 4303.000,972.1000 C4305.097,976.190 4304.038,975.479 4309.000,975.1000 C4309.1000,975.333 4311.000,974.667 4311.1000,974.000 C4311.1000,972.333 4311.1000,970.666 4311.1000,969.000 C4309.1000,967.667 4307.1000,966.333 4305.1000,965.000 C4308.333,962.334 4310.667,959.666 4313.000,957.000 C4312.667,955.333 4312.333,953.667 4311.1000,951.1000 C4311.334,951.666 4310.667,951.333 4309.1000,951.000 C4308.000,951.1000 4305.1000,953.000 4303.1000,954.000 C4303.1000,952.333 4303.1000,950.667 4303.1000,948.1000 C4311.499,937.819 4321.698,931.589 4322.000,912.1000 C4317.185,903.860 4311.956,902.595 4303.000,907.1000 C4302.000,904.667 4301.000,901.333 4299.1000,897.1000 C4303.333,895.667 4306.667,893.333 4309.1000,891.000 C4312.333,891.667 4314.667,892.333 4316.1000,892.1000 C4317.333,892.667 4317.667,892.333 4318.000,891.1000 C4316.961,886.241 4317.254,878.941 4318.000,873.000 C4322.085,874.785 4327.899,877.223 4332.1000,874.1000 C4334.667,873.334 4336.334,871.666 4337.1000,870.000 C4336.780,862.605 4333.873,860.365 4330.000,855.1000 C4335.885,855.870 4336.064,855.384 4339.000,852.1000 C4335.282,845.636 4330.834,834.530 4326.000,826.1000 C4330.203,821.449 4338.464,815.971 4347.000,814.1000 C4347.666,815.333 4348.333,815.667 4349.000,816.000 C4348.928,825.242 4351.342,828.007 4354.1000,832.1000 C4361.863,832.237 4370.944,833.157 4379.000,831.000 C4385.057,812.899 4377.939,793.611 4392.000,780.000 C4400.377,780.248 4409.366,780.113 4415.000,777.1000 C4415.000,778.1000 4415.000,780.000 4415.000,780.1000 C4412.226,784.580 4408.238,788.794 4409.1000,793.1000 C4411.255,798.422 4411.266,798.198 4415.000,799.1000 C4421.508,803.613 4425.165,801.383 4428.000,795.1000 C4426.263,791.945 4425.409,790.338 4421.1000,787.1000 C4417.396,789.233 4416.984,790.582 4413.1000,792.1000 C4413.1000,792.000 4413.1000,790.1000 4413.1000,789.1000 C4415.000,788.334 4415.1000,786.667 4417.000,784.1000 C4422.666,783.1000 4428.334,782.1000 4434.000,781.1000 C4428.667,802.998 4423.333,824.002 4417.1000,844.1000 C4421.792,848.234 4427.499,850.399 4430.000,855.000 C4432.616,864.625 4413.041,899.200 4407.1000,906.1000 C4387.660,938.469 4355.534,984.143 4343.1000,1020.1000 C4337.123,1042.977 4340.412,1080.671 4324.1000,1092.1000 C4326.000,1093.667 4326.1000,1094.334 4328.000,1095.000 C4343.948,1104.333 4358.839,1095.877 4371.1000,1092.1000 C4372.667,1093.333 4373.333,1093.667 4373.1000,1094.000 C4374.333,1095.666 4374.667,1097.334 4375.000,1098.1000 C4362.105,1114.326 4321.710,1121.278 4296.000,1122.000 ZM4366.000,778.1000 C4370.139,789.341 4351.441,805.912 4343.1000,805.1000 C4343.1000,805.333 4343.1000,804.667 4343.1000,804.000 C4340.998,797.521 4345.408,788.444 4349.1000,786.000 C4355.333,783.667 4360.667,781.333 4366.000,778.1000 ZM4375.1000,778.1000 C4389.857,787.088 4370.599,818.123 4356.1000,813.000 C4353.365,812.356 4353.973,812.597 4351.1000,810.1000 C4361.750,803.643 4371.888,791.659 4375.1000,778.1000 ZM4370.000,816.000 C4371.333,816.667 4372.667,817.333 4373.1000,817.1000 C4373.667,819.333 4373.333,820.667 4373.000,822.000 C4371.000,822.1000 4368.1000,824.000 4366.1000,825.000 C4363.000,822.667 4358.1000,820.333 4354.1000,817.1000 C4359.1000,817.333 4365.000,816.667 4370.000,816.000 ZM4322.000,832.1000 C4324.061,835.348 4322.923,842.894 4322.000,847.1000 C4321.667,847.1000 4321.333,847.1000 4320.1000,847.1000 C4317.334,846.000 4313.667,843.1000 4309.1000,841.1000 C4310.333,840.1000 4310.667,840.000 4311.000,838.1000 C4312.666,837.667 4314.333,836.333 4316.000,834.1000 C4318.000,834.334 4320.000,833.667 4322.000,832.1000 ZM4288.1000,841.1000 C4291.1000,841.1000 4295.001,841.1000 4297.1000,841.1000 C4296.000,845.333 4293.1000,848.667 4292.000,852.000 C4291.333,851.667 4290.666,851.333 4290.000,850.1000 C4288.550,845.647 4287.520,845.730 4288.1000,841.1000 ZM4307.000,844.1000 C4310.333,846.333 4313.667,847.667 4316.1000,849.000 C4316.667,849.667 4316.333,850.333 4316.000,850.1000 C4313.000,852.000 4309.1000,852.1000 4307.000,853.1000 C4307.000,851.000 4307.000,847.1000 4307.000,844.1000 ZM4303.000,849.000 C4303.334,851.333 4303.667,853.667 4303.1000,855.1000 C4301.667,856.333 4299.333,856.667 4297.000,856.1000 C4299.000,854.334 4301.000,851.666 4303.000,849.000 ZM4313.000,856.1000 C4313.667,856.1000 4314.333,856.1000 4315.000,856.1000 C4313.1000,859.333 4312.1000,861.667 4311.1000,864.000 C4311.334,863.667 4310.667,863.333 4309.1000,862.1000 C4309.666,861.334 4309.333,859.666 4309.000,858.000 C4310.333,857.667 4311.667,857.333 4313.000,856.1000 ZM4322.1000,856.1000 C4326.333,859.666 4329.667,862.333 4332.1000,864.1000 C4332.667,867.333 4332.333,869.667 4332.000,871.1000 C4324.113,872.667 4320.899,871.606 4316.1000,865.1000 C4316.1000,865.333 4316.1000,864.667 4316.1000,864.000 C4318.1000,861.667 4321.000,859.333 4322.1000,856.1000 ZM4297.000,859.1000 C4299.1000,859.1000 4303.000,859.1000 4305.1000,859.1000 C4305.1000,861.000 4305.1000,861.1000 4305.1000,862.1000 C4303.000,862.667 4299.1000,862.333 4297.000,861.1000 C4297.000,861.334 4297.000,860.667 4297.000,859.1000 ZM4288.000,873.1000 C4290.1000,875.1000 4294.000,878.000 4297.000,879.1000 C4296.333,879.1000 4295.667,879.1000 4294.1000,879.1000 C4292.667,880.1000 4290.333,882.000 4288.000,882.1000 C4288.000,880.000 4288.000,876.1000 4288.000,873.1000 ZM4305.000,880.1000 C4305.302,885.499 4297.362,892.749 4294.000,897.1000 C4295.775,909.279 4307.282,914.175 4303.1000,927.1000 C4300.667,933.1000 4297.333,940.001 4294.000,945.1000 C4293.667,945.1000 4293.333,945.1000 4292.1000,945.1000 C4291.111,932.520 4292.343,910.166 4290.000,897.1000 C4288.334,897.667 4286.666,897.333 4284.1000,897.000 C4284.1000,895.333 4284.1000,893.667 4284.1000,891.1000 C4288.1000,894.116 4286.662,894.293 4290.000,892.1000 C4289.407,884.532 4298.622,885.018 4305.000,880.1000 ZM4265.000,897.1000 C4268.333,898.1000 4271.667,900.000 4275.000,900.1000 C4268.110,910.145 4265.661,917.542 4265.1000,934.1000 C4265.334,934.667 4264.667,934.333 4263.1000,933.1000 C4258.918,921.783 4254.263,908.301 4265.000,897.1000 ZM4284.000,901.1000 C4284.1000,901.1000 4286.000,901.1000 4286.1000,901.1000 C4286.463,922.631 4290.791,945.247 4290.000,960.1000 C4287.667,963.666 4285.333,966.333 4282.1000,969.000 C4282.667,969.000 4282.333,969.000 4282.000,969.000 C4277.411,947.918 4269.315,923.166 4280.000,903.1000 C4281.333,903.334 4282.667,902.667 4284.000,901.1000 ZM4292.1000,969.1000 C4293.667,969.1000 4294.334,969.1000 4294.1000,969.1000 C4295.333,974.333 4295.667,978.667 4296.000,983.000 C4293.333,985.1000 4290.666,989.000 4288.000,992.000 C4286.876,985.321 4285.287,979.220 4286.1000,975.000 C4288.1000,973.333 4291.000,971.667 4292.1000,969.1000 ZM4280.000,986.000 C4287.640,995.629 4280.960,1006.856 4277.1000,1014.000 C4277.667,1014.000 4277.333,1014.000 4277.000,1014.000 C4275.259,1002.560 4274.699,994.855 4280.000,986.000 ZM4294.000,996.000 C4305.213,1001.623 4302.006,1020.228 4292.000,1026.000 C4290.860,1012.929 4290.585,1006.735 4294.000,996.000 ZM4290.1000,1080.000 C4288.667,1079.667 4286.333,1079.333 4284.000,1079.000 C4284.334,1075.667 4284.667,1072.333 4284.1000,1068.1000 C4286.000,1068.000 4286.1000,1066.1000 4288.000,1065.1000 C4288.1000,1066.667 4290.000,1067.334 4290.1000,1068.000 C4290.1000,1071.999 4290.1000,1076.001 4290.1000,1080.000 ZM4303.1000,1071.1000 C4305.333,1072.667 4306.667,1073.334 4307.1000,1074.000 C4307.1000,1074.1000 4307.1000,1076.000 4307.1000,1077.000 C4305.667,1078.333 4303.333,1079.667 4301.000,1080.1000 C4300.667,1080.1000 4300.333,1080.1000 4299.1000,1080.1000 C4299.1000,1079.667 4299.1000,1078.333 4299.1000,1077.000 C4301.333,1075.333 4302.667,1073.667 4303.1000,1071.1000 ZM4271.000,1073.000 C4272.667,1073.333 4274.333,1073.667 4275.1000,1074.000 C4275.1000,1075.1000 4275.1000,1078.000 4275.1000,1080.000 C4275.000,1080.000 4273.1000,1080.000 4273.000,1080.000 C4271.1000,1079.000 4271.000,1077.1000 4269.1000,1077.000 C4270.333,1075.667 4270.667,1074.333 4271.000,1073.000 ZM4278.1000,1073.000 C4280.924,1075.359 4281.495,1077.653 4280.000,1080.1000 C4280.000,1080.333 4280.000,1079.667 4280.000,1079.000 C4279.667,1077.000 4279.333,1074.1000 4278.1000,1073.000 ZM4265.000,1079.000 C4265.666,1079.667 4266.333,1080.333 4267.000,1080.1000 C4266.000,1081.333 4265.000,1081.667 4263.1000,1082.000 C4264.333,1081.000 4264.667,1080.000 4265.000,1079.000 ZM4269.1000,1083.1000 C4272.333,1084.333 4274.667,1084.667 4277.000,1085.000 C4276.667,1089.333 4276.333,1093.667 4275.1000,1098.000 C4272.000,1095.333 4267.1000,1092.666 4263.1000,1089.1000 C4267.247,1087.678 4268.264,1088.192 4269.1000,1083.1000 ZM4288.1000,1085.000 C4290.000,1085.000 4290.1000,1085.000 4292.000,1085.000 C4291.333,1085.667 4290.666,1086.333 4290.000,1086.1000 C4289.667,1086.333 4289.333,1085.667 4288.1000,1085.000 ZM4303.1000,1085.000 C4306.666,1086.000 4309.334,1087.000 4311.1000,1088.000 C4311.1000,1088.333 4311.1000,1088.667 4311.1000,1089.000 C4311.334,1090.333 4310.667,1091.667 4309.1000,1092.1000 C4305.601,1091.420 4305.262,1091.722 4303.000,1088.000 C4303.334,1087.000 4303.667,1086.000 4303.1000,1085.000 ZM4284.1000,1088.000 C4285.333,1088.667 4285.667,1089.333 4286.000,1089.1000 C4285.667,1089.333 4285.333,1088.667 4284.1000,1088.000 ZM4294.000,1089.000 C4294.333,1090.333 4294.667,1091.667 4294.1000,1092.1000 C4294.334,1092.333 4293.667,1091.667 4292.1000,1091.000 C4293.333,1090.333 4293.667,1089.666 4294.000,1089.000 ZM4288.1000,1092.1000 C4290.000,1093.667 4290.1000,1094.334 4292.000,1095.000 C4292.000,1095.333 4292.000,1095.667 4292.000,1095.1000 C4290.667,1095.1000 4289.333,1095.1000 4288.000,1095.1000 C4288.000,1095.667 4288.000,1095.333 4288.000,1095.000 C4288.334,1094.334 4288.666,1093.667 4288.1000,1092.1000 ZM4261.000,1095.000 C4264.333,1096.666 4267.667,1098.333 4271.000,1100.000 C4269.605,1105.525 4271.462,1108.038 4273.1000,1112.000 C4279.888,1112.966 4281.995,1112.475 4286.000,1115.000 C4286.666,1117.1000 4287.333,1121.000 4288.000,1124.000 C4279.001,1124.000 4269.999,1124.000 4261.000,1124.000 C4259.667,1123.000 4258.333,1122.000 4256.1000,1121.000 C4257.706,1110.587 4262.558,1109.547 4263.1000,1100.000 C4263.000,1098.333 4261.1000,1096.666 4261.000,1095.000 ZM4303.000,1101.000 C4304.333,1101.666 4305.667,1102.333 4307.000,1103.000 C4305.667,1104.333 4304.333,1105.667 4303.000,1107.000 C4302.667,1107.000 4302.333,1107.000 4301.1000,1107.000 C4302.333,1105.000 4302.667,1102.1000 4303.000,1101.000 ZM4275.000,1101.1000 C4278.635,1102.644 4278.027,1102.403 4280.000,1104.000 C4280.666,1104.000 4281.333,1104.000 4282.000,1104.000 C4281.667,1105.333 4281.333,1106.667 4280.1000,1107.1000 C4279.000,1107.333 4276.1000,1106.667 4275.000,1106.000 C4275.000,1104.667 4275.000,1103.333 4275.000,1101.1000 ZM4286.000,1101.1000 C4288.1000,1101.1000 4292.000,1101.1000 4294.1000,1101.1000 C4294.1000,1102.333 4294.1000,1102.667 4294.1000,1103.000 C4293.569,1107.492 4293.143,1109.379 4290.000,1112.000 C4289.333,1111.333 4288.666,1110.666 4288.000,1110.000 C4284.826,1107.298 4285.306,1106.363 4286.000,1101.1000 ZM4286.1000,1113.000 C4287.667,1113.666 4288.334,1114.333 4288.1000,1115.000 C4288.334,1114.333 4287.667,1113.666 4286.1000,1113.000 Z" />
</svg>