<svg xmlns="http://www.w3.org/2000/svg" width="2155" height="1912.81" viewBox="0 0 2155 1912.81">
  <defs>
    <style>
      .cls-1 {
        fill-rule: evenodd;
      }
    </style>
  </defs>
  <path id="Forteresse" class="cls-1" d="M4446,2929q0.495-6,1-12c7.13-.12,9.01-0.21,15,1,1.31,3.56,1.61,7.1,5,9l3-12q9,0.495,18,1c-0.21,4.83-.25,7.77,2,10,1,0.33,2,.67,3,1l1-1v-11c8.72,0.63,8.69-.03,14-4q3.495,6.495,7,13h2l1-1v-9q10.005,0.495,20,1c0.67,3.33,1.33,6.67,2,10,0.67-.33,1.33-0.67,2-1,0.67-3,1.33-6,2-9q9,1.005,18,2c0.67,3,1.33,6,2,9,1.67-.33,3.33-0.67,5-1v-5c0.33-2,.67-4,1-6h18q1.5,5.505,3,11l3-9q9.495-.495,19-1c0.33,3,.67,6,1,9,0.67-.33,1.33-0.67,2-1,0.22-7.67,4.09-8.05,4-14-0.45-29.4-8.57-57.96,26-59,16.09-.48,22.68,4.98,30,13-6.51,13.89-3.67,45.68,0,64h2c0.67-3.33,1.33-6.67,2-10h17q1.5,5.505,3,11c0.67-.33,1.33-0.67,2-1v-10h19q1.005,6,2,12c0.67-.33,1.33-0.67,2-1v-11c7.03-.68,13.53-2.43,17,3,0.33,2.33.67,4.67,1,7h3c0.33-2.67.67-5.33,1-8h7c-0.32-17.76-4.15-49.81,3-62,12.92-5.15,37.23-5.15,49,2,4.66,15.55,1.16,42.14,1,62,9.1,1.54,8.85,4.94,13,11,0.67-.33,1.33-0.67,2-1,1.06-12.21,10.18-14.16,18-9-0.08,5.3.53,8.02,2,11h1q1.995-6.495,4-13,7.5,0.495,15,1,1.005,6,2,12c1.33-.33,2.67-0.67,4-1-0.35-6.17-.62-9.61,3-12,3.7-1.85,11.56-1.55,14,1,0.67,3.33,1.33,6.67,2,10h1c-0.08-5.3.53-8.02,2-11,8.26-.4,11.55-0.43,17,3-0.14,4.92.06,7.57,2,10v-2q1.005-5.505,2-11c9.37-.25,13.98,1.45,19,5,0.33,2.33.67,4.67,1,7h1q1.005-6,2-12h15q1.5,6.495,3,13c0.67-.33,1.33-0.67,2-1v-11q10.005-.495,20-1c-0.33,1.33-.67,2.67-1,4,0.33,3,.67,6,1,9,1-.33,2-0.67,3-1,1-4.67.51-9.52,4-12q7.005,0.495,14,1,1.5,5.505,3,11c4.86-6.59.97-12.66,13-13,2.33,0.67,4.67,1.33,7,2q1.995,4.995,4,10c0.67-.33,1.33-0.67,2-1,1-2.67,2-5.33,3-8,17.7-.29,28.17-12.36,36-23,1,0.33,2,.67,3,1,6.49,21.6,16.08,16.42,39,20q1.995,4.995,4,10h4c0.33-3.33.67-6.67,1-10,7.12-.27,14.67-0.09,19,2,0.4,4.03.33,3.91,2,6h1c0.67-3,1.33-6,2-9h17l3,9h6c-0.33-.67-0.67-1.33-1-2,0.33-2.33.67-4.67,1-7,6.89-.26,13.86-0.01,18,2,1.61,4.32,2.26,5.59,7,7,0.67-2.33,1.33-4.67,2-7q8.505-.495,17-1c2.11,5.25,1.4,6.68,9,7,0.48-4.44.46-4.87,3-7,9.29-3.81,16.7,3.95,21,3-0.1-14.27-5.9-39.31-5-42,2.07-1.96,1.04-.37,2-4-2.64-4.69-3.23-2.51-2-7,22.06-7.32,11.84-37.73,18-51,3,0.33,6,.67,9,1q0.495,6.495,1,13c6.12,0.36,7,.05,8,6-4.83-.21-7.77-0.25-10,2-0.67,2.67-1.33,5.33-2,8,5.42,8.12,10.17,13.31,19,18-1.35,13,.09,31.39,1,49q6,3.495,12,7c-3.21-82.35,114.7-50.3,174-42l1-1c-0.59-9.38-2.59-12.93,1-19,9.31-2.26,11.22-4.75,20-3,3.08,19.45,8.98,33.32,13,51q-0.495,16.995-1,34c3.18,13.05,12.51,24.8,16,35q-2.505,19.005-5,38-7.5,48.99-15,98c-6.92,21.14-79.76,22.39-89,5q0.495-12.495,1-25c-3.67-.33-7.33-0.67-11-1l-2,2c1.12,3.98,5,90,5,90-2.67,1-5.33,2-8,3,3.15,13.81,3.49,36.32,7,54,2.87,14.45,9,27.24,12,40-1,.33-2,0.67-3,1q-9,1.995-18,4,4.5,6.495,9,13v42c1.75,10.16,8.01,22.92,6,33h-2q-9,1.995-18,4v5l12,15q0.495,16.5,1,33a487.49,487.49,0,0,0,10,48h-2q-7.995,1.005-16,2c-0.13,30.88,13.73,25.58,28,40,5.49,5.55,1.87,10.12,10,14,14.58,3.4,42.65-5.35,59-8,23.37-3.78,46.79,8.91,62,7,0.61-8.33-1-13.3,7-17,1,0.67,2,1.33,3,2,2.4,8.74-1.83,23.53,2,35,2.13,6.4,9.31,8.58,12,16q-5.505-2.505-11-5v9c5.03,5.87,9.95,6.5,13,15q-4.995-1.995-10-4c-2.38,3.97-3.25,3.46-8,5q-0.495,10.5-1,21c-0.67.33-1.33,0.67-2,1-1-.67-2-1.33-3-2-1.56-6.53-2.1-18.77-5-24-5.03-2.02-6.34-4.16-13-5-0.67.33-1.33,0.67-2,1q-0.495,11.505-1,23h-3c-1-.33-2-0.67-3-1-2.54-8.93-.93-22.5-6-30-3.33-.33-6.67-0.67-10-1-0.33.67-.67,1.33-1,2q-1.005,12.495-2,25c-1,.33-2,0.67-3,1-1-.67-2-1.33-3-2l-3-27h-12q-1.5,14.505-3,29c-2.33-.33-4.67-0.67-7-1a91.769,91.769,0,0,0-4-29c-0.67-.33-1.33-0.67-2-1-3.67.33-7.33,0.67-11,1-0.53,7.76,1.52,23.55-2,31h-6q-1.995-13.005-4-26c-5.78.3-9.62,1.17-12,5q-0.495,12-1,24c-3.35,3.2-8.43,3.91-11,8-1.77,6.43,3.29,11.61,5,18l-1,1c-2.67.33-5.33,0.67-8,1,1.05,15.72,9.26,60.3,7,66q-16.005,3.495-32,7c-1.82,5.53-2.84,14.74-1,21,5.29,0.27,4.82-.23,7,3q0.495,16.995,1,34c2.25,11.63,11.68,28.45,11,38v1c-1.04,6.77-6.13,15.11-8,24-10.29-.66-17.72-0.66-21,6-1.18,3.92-1.04,7.05,1,10,2.83,2.98,7.49,2.57,10,6,8.58,10.8-.42,39.17,4,55,2.36,8.44,7.47,19.8,10,29-5.04,4.49-6.43,12.03-9,19q-9-.495-18-1,1.005,22.005,2,44c2.61,4.88,9.19,7.07,11,14,3.3,12.61-.78,28.74,4,39l9,6c-0.15,31.22-5.84,83.53,1,109q6,0.495,12,1c-0.17-19.53,6.64-25.38,17-34,31.22-.02,34.52,25.56,44,47,7.47,16.89,24.34,37.3,33,60,5.36,14.05,3.05,19.58,10,32-8.93,20.49,8.27,36.45,11,56l-2,2c-17.72,3.52-45.87,3.24-65,1q-40.5-.495-81-1c-19.52-2.94-35.95,2-48-7-9.52-7.12-4.37-15.87-8-27q-44.49,1.005-89,2c-8.64-3.27-21.3-16.95-26-25q-29.49.495-59,1c-36.45-5.6-97.38-6.5-139,0H4892c0.67,0.33,1.33.67,2,1,6.6,6.24,11.54,13.71,18,20-4.73,17.17,8.55,26.01,12,44-23.69-.32-40.33,13.13-59,21-28.58,12.05-52.95,23.87-83,35-9.86,3.65-30.04,18.45-45,14l-18-12q-37.995-14.505-76-29c-50.69-20.49-68.36-44.54-142-33v3c8.98,2.27,25.83,10.62,30,18,4.48,5.84,3.3,20.82,3,31-14.98.18-14.83-5.55-24-9-1.19,3.7-.94,5.01-4,7-2.67.33-5.33,0.67-8,1-2.3-12.9-31.26-33.08-40-45-0.46-31.92,8.1-48.04,23-66h-47c-0.67.33-1.33,0.67-2,1,0.7,5.65,1.79,6.22-2,9-19.04,8.66-44.69,7.81-57-5-27.21,5.2-72.68,6.84-96-2l-2,2c2.22,5.27,4.83,6.3,6,13-23.13.93-49.73,7.81-58-11-10.84-.35-54.16-1.95-58,5-9.41,23.85,18.31,43.48,14,65-10.87.34-30.84,9.17-46,12-39.25,7.33-86.62,2.11-120-4-12.3-2.25-48.61-1.53-53-9q9-22.995,18-46l-4-4c8.67-26.84,22.54-58.9,31-87,5.86-19.44,4.24-44.93,15-60,19.09-26.73,47.15-2.64,51,22h33c1.94-12.22,9.98-32.85,4-46-2.67-.67-5.33-1.33-8-2l9-75c2.13-2.84,3.96-3.07,8-4-0.67-2-1.33-4-2-6-3-.33-6-0.67-9-1q3-14.505,6-29-0.495-16.005-1-32v-2l9-6v-9c-9.49.57-19.38,0.49-23-5-0.66-2.92,9.16-31.76,11-42q-1.005-13.5-2-27c1.95-9.43,8.54-17.59,11-27,3.99-15.28-4.75-25.14-5-37-0.33-15.55,10.63-41.03,1-56-15.65-2.74-43.19,3.75-58-3q4.005-10.005,8-20c2.89-15.41-6.75-34.71,1-48,4.43-1.15,17.29.62,23-2q3-4.005,6-8h23c0.33-3.33.67-6.67,1-10-2.67-1-5.33-2-8-3,8.33-17.97.05-37.62,6-60,1.25-4.72,5.53-3.56,6-9v-6q-6.495-1.995-13-4l3-54q-1.005-9.495-2-19c1.85-6.77,14.21-20.96,9-34-1.38-3.45-6.12-11.93-6-18,0.13-6.94,4.16-13.1,3-21q-5.505-1.995-11-4c7.84-25.64,1.07-52.05,7-83,1.45-7.58,6.74-10.42,9-16,4.79-11.8,2.4-58.09,0-70-5.43-2.65-12.42-5.19-20-3q4.995,13.005,10,26c-11.51,1.63-75.68,1.55-88-3l-19-16c-39.97-24.27-80.53-42.69-116-71,0.67-1,1.33-2,2-3,15.03-3.2,24.81-19.78,21-33,5.24-4.1,8.22-10.45,9-19-0.67-.33-1.33-0.67-2-1q-19.005,18-38,36c-11.92-4.01-20.13-13.06-30-19-38.3-23.07-77.4-45.48-115-67v-3c7.72-6.75,21.51-32.53,16-42-32.56-11.16-71.06-41.01-106-45-4.51,7.62-50.59,38.18-56,35q-60.99-33.99-122-68c-14.74-8.85-35.82-15.59-46-29v-2c17.55-13.52,15.03-33.15,27-51q16.995-14.505,34-29l27-30,22-16c10.05,4.7,23.25,6.49,36,9q2.505,12,5,24c0.67-.33,1.33-0.67,2-1,2.03-27.54,25.6-81.01,20-105-13.04,1.9-49.27-2.91-70-3-14.8-28.55-15.08-148.78-6-179q4.005-16.995,8-34c1.66-1.93,11.9-7.2,15-10,33.93,25.54,116.13,1.23,150,22,3.81,12.96,15.05,49.86,26,55,8.43,2.41,107.41-3.97,113-8q7.5-11.505,15-23-0.495-6-1-12c5.49-14.29,21.8-29.86,34-39,14.88,8.87,108.93-19.6,127-24,5.84,5.53,10.36,3.72,18,4-0.84,19.79,9.99,42.46,20,56q7.005,7.5,14,15c20.09,44.33,23.38,95.8,50,132q-31.5,1.995-63,4v3q31.5,36.495,63,73h19v-1q-11.505-16.5-23-33v-1h2c8.32-3.7,19.91-3.62,27-8,0.23-9,2.9-8.73,5-15q6-.495,12-1c13.98,7.97,23.36,24.96,36,35,21.32,16.92,48.02,30.73,65,52,4.89,6.12.02,13.71,4,22l6,3q-1.5,7.005-3,14l9,18h2c0.17-14.59.78-22.87-1-36l1-1q6.495-.495,13-1,17.505,13.5,35,27,28.995,15,58,30c3.03,2.49,18.61,29.55,21,34,7.68-1.19,17.41-1.19,24,1,0.67,3,1.33,6,2,9,0.67-.33,1.33-0.67,2-1,0.17-7.44,1.67-8.99,6-12l11,3C4440.4,2925.7,4439.07,2928.11,4446,2929Zm119-11c0.33,0.67.67,1.33,1,2C4565.67,2919.33,4565.33,2918.67,4565,2918Zm332,1355h0Zm-40,89h0Z" transform="translate(-3420 -2495)"/>
</svg>
