<svg id="metaphysic" xmlns="http://www.w3.org/2000/svg" width="9645" height="7181" viewBox="0 0 9645 7181">
  <defs>
    <style>
      .cls-1 {
        fill: #fff;
      }

      .cls-2 {
        fill-rule: evenodd;
      }
    </style>
  </defs>
  <path id="metaphysic-2" data-name="metaphysic" class="cls-2" d="M6547,297c77.93,21.992,14.53,97.558-35,108-0.33.667-.67,1.333-1,2,0.67,1.333,1.33,2.667,2,4l28,10v7c-6.18,12.292-17.71,17.818-24,29-7.93,14.106-11.97,27.512-20,43-3.3,6.373-9.68,6.781-12,15,0.33,0.333.67,0.667,1,1,8.75-3.244,13.9,2.159,22,4,59.65,13.561,47.35,44.77,77,85,19.39,26.3,41.33,21.178,45,64,22.03,3.911,10.46,30.516,22,44q28.5,21.5,57,43c3.49,4.651.32,9.415,3,16q6.495,9.5,13,19c10.99,30.6,3.38,64.351-8,89h-3c-1.33-1.333-2.67-2.667-4-4q-1.005-9-2-18l-3,2c-1.24,4.047-1.61,5.059-5,7-3.89.341-3.27,1.609-4-4q3.495-8.5,7-17c-6.56,2.243-9.87,6.276-18,9,2.19-8.828,11.87-11.277,16-20-0.53-7.372-2.63-16.179-7-20-0.67,1-1.33,2-2,3q-1.995,6-4,12l-3,1c-4.63-1.777-18.74-45.617-24-53-20.68-29.038-71.77-30.075-92-59q-5.505-15.5-11-31c-8.04-19.322-25.32-44.642-41-57-51.44,27.174-89.64,58.2-81,134-28.9,7.291-68.12,2.123-104,2,4.22-19.393,23.9-27.157,36-39-1.33-8.593-2.23-21.532-5-28-10.38-6.129-18.64-17.806-25-28h-4c-9.33,10.594-36.32,28.647-48,6-2.46-4.781-.86-7.6-4-11-2.33.667-4.67,1.333-7,2-0.33-2.666-.67-5.334-1-8l-3-1c-3.33.667-6.67,1.333-10,2,6.3-20.919,45.52-39.845,59-57,7.53-9.578,10.91-19.2,18-30q4.995-4,10-8,4.5-15.5,9-31c12.6-35.651,27.28-86.858,57-106-0.98-33.265,17.73-59.625,50-59,3.32,4.471,6.62,7.389,14,8,0.67-.333,1.33-0.667,2-1-0.04-36.523,23.78-72.1,52-80ZM6268,777q22.005,7,44,14,13.005,7,26,14l23-5,48-1c47.52,7.4,92.41,25.259,116,57-10.91,36.477-66.67,94.518-97,114-7.56-21.522-33.41-29.966-54-39-35.56-15.6-70.74-28.811-117-37-27.7-4.9-53.66,4.392-77,5,0.33-1,.67-2,1-3,13.98-5.573,20.19-21.412,32-28l18-2c14.17-3.743,37.48-9.861,44-22v-8c-7.84-3.411-20.74-18.918-25-29q3.495-3.5,7-7c-0.33-.333-0.67-0.667-1-1q-7.005,6-14,12c-1.14-6.312-2.66-7.454-8-7,0.25-8.8,3.52-11.635,7-17C6248.43,784.954,6265.03,783.1,6268,777Zm-42,157c46.09-.875,79.22,4.865,115,16q18.495,10,37,20l34,13c-21.71,29.13-7.39,75.11-24,104a45.97,45.97,0,0,1-21,0c-6.83-5.3-5.86-14.07-10-22-2.33-.33-4.67-0.67-7-1-8.98,2.62-8.18,9.82-15,14l-1,1c-8.17,1.03-10.63-7-16-9-10.61-3.95-21.01-2.61-32-4-0.33-1-.67-2-1-3,2.13-9.39,7.57-16.73,2-26-13.45-3.35-17.02-12.27-28-15q-3.495,6.495-7,13c-4.91-2.54-7.58-4.09-14-3-18.94,22.23-41.8,47.74-78,32v-4c11.33-6.46,23.92-22.5,24-40-15.7-12.39-27.58-47.56-28-74Z"/>
</svg>
