<svg xmlns="http://www.w3.org/2000/svg" width="9645" height="7181" viewBox="0 0 9645 7181">
  <path id="naturalphilosophy" data-name="naturalphilosophy.svg" class="cls-2"
    d="M1574,866v8c12.89-.848,19.82,2.422,34,2v8c24.65,1.909,17.93,29.9,40,32,4.38-7.535,13.77-10.2,23-13,38.89-11.824,50.01,3.561,73,21,9,6.824,17.63,9.565,24,19,2.19,3.242,17.35,38.45,18,41q1.5,14,3,28c29.98,84.09,31.58,202.84,50,310,4.88,28.41,13.07,124.57-8,137-1.33.33-2.67,0.67-4,1l-11-11c0.31-22.31-3.09-38.95-6-57v-36c-3.27-21.09-3.9-41.31-7-60-6.83-41.23-4.21-82.52-14-116-7.03-24.05.13-48.43-4-72q-4.995-21.495-10-43c-5-28.08-1.27-57.45-10-80-11.04-28.508-24.52-46.953-55-56-21.7-6.441-47-3.025-49,18,9.45,19.408,31.45,29.9,41,49,3.29,6.58-3.33,13.9-2,20l1,1c0.4,1.09,43,67,43,67h1l1,1c0.51,10.65,1.12,13.65-1,23-1.67,1.33-3.33,2.67-5,4-33.48.78-47.38-12.42-65-27-2,.67-4,1.33-6,2-7.08,38.57-8.59,80.95,3,115q4.995,9,10,18-1.005,6-2,12c3.77,15.45,18.24,22.89,14,52v70c-3.59,23.21-7.95,39.12-12,61q1.005,14.505,2,29-3,6.495-6,13c-5.49,23.72,11.06,38.98,6,63-5.22,24.77-15.08,50.82-20,73-3.67,16.58,2.7,23.07,2,36q-1.005,10.5-2,21c3.71,11.97,23.82,18.54,31,30l-2,2c-1.67,2-3.33,4-5,6-34.25.54-27.76-11.49-48-18-4.46,16.78-17.64,29.91-29,40q-10.5-.495-21-1c-4.18-7.85-10-14.77-10-24q8.505-9,17-18c14.43-51.41-22.97-88.39-31-127v-86l-10-10q0.495-16.005,1-32c-8.58-21.88-21.87-46.27-30-70-6.19-18.08-4.79-34.86-9-56-2.79-14.03-9.65-44.34-6-61,2.39-10.92,10-26.13,12-35,1.79-7.98-4.93-8.41-2-17,2.73-8,9.69-9,11-19h-1c-0.67,2.67-1.33,5.33-2,8-0.67-.33-1.33-0.67-2-1,4.9-15.77.95-34.42-4-51q-4.5-2.505-9-5c-34.66.17-32.95,29.63-74,22-3.08-40.3,18.61-57.37,37-81q10.5-13.995,21-28c5.37-3.42,14.02-3.53,17-9,4.68-8.58,15.39-47.37,12-55-11.58-3.128-24.14-11.962-40-7-50.25,15.728-59.64,129.16-49,198,4.31,27.87-.3,63.58,4,91,4.5,28.69,5.99,57.9,1,79-3.85,16.31,4.1,42.86,2,54-7.73,40.9.98,108.83-29,125h-3c-13.9-14.19-17.87-78.5-12-108q4.995-13.005,10-26-1.005-15.495-2-31c1.59-8.42,6.49-21.22,5-33q1.005-66,2-132c-2.61-83.95-12.52-162.92,26-215,14.85-20.077,40.25-22.52,61-37C1531.54,892.779,1527.67,863.083,1574,866Zm-42,285v0Zm79,200-6,72q1.005,13.995,2,28-1.005,16.995-2,34,6,20.505,12,41l-3,33c-2.16,27.46,5.6,65.55,15,85h4l1-1c0.38-26.01,4.25-62.39-2-86-4.15-15.67-11.07-26.27-11-48,0.07-22.11,7.9-31.55,11-51,4.39-27.51-6.6-44.81-11-62-3.83-14.96-1.53-33.29-8-45h-2Zm0,42c0.33,0.67.67,1.33,1,2C1611.67,1394.33,1611.33,1393.67,1611,1393Z" />
</svg>